<svg width="25" height="24" viewBox="0 0 25 24" fill="none" xmlns="http://www.w3.org/2000/svg">
<path d="M12.2771 6.896C11.3291 6.896 9.86211 5.818 8.31711 5.856C6.27711 5.883 4.40711 7.039 3.35611 8.87C1.23911 12.545 2.81011 17.973 4.87511 20.96C5.88811 22.414 7.08311 24.05 8.66711 23.999C10.1871 23.934 10.7571 23.012 12.6021 23.012C14.4331 23.012 14.9521 23.999 16.5621 23.96C18.1991 23.934 19.2381 22.48 20.2381 21.012C21.3941 19.324 21.8741 17.687 21.9001 17.597C21.8611 17.584 18.7181 16.376 18.6801 12.74C18.6541 9.7 21.1601 8.246 21.2771 8.181C19.8481 6.091 17.6541 5.857 16.8871 5.805C14.8871 5.649 13.2121 6.896 12.2771 6.896ZM15.6551 3.83C16.4981 2.818 17.0551 1.403 16.9001 0C15.6931 0.052 14.2381 0.805 13.3681 1.818C12.5881 2.714 11.9141 4.156 12.0951 5.532C13.4331 5.636 14.8101 4.844 15.6541 3.831" fill="#FAFAFA"/>
</svg>
