<svg width="25" height="24" viewBox="0 0 25 24" fill="none" xmlns="http://www.w3.org/2000/svg">
<path d="M7.75109 21.337H3.14509C3.05256 21.337 2.96115 21.3169 2.87712 21.2782C2.79309 21.2394 2.71844 21.183 2.65829 21.1127C2.59815 21.0424 2.55394 20.9599 2.5287 20.8708C2.50346 20.7818 2.4978 20.6884 2.51209 20.597L5.61909 0.901C5.70109 0.382 6.14909 0 6.67309 0H14.1331C16.7031 0 18.7111 0.543 19.8231 1.81C20.8331 2.96 21.1271 4.23 20.8351 6.097C20.8121 6.24 20.7881 6.385 20.7581 6.534C19.7751 11.584 16.4091 13.331 12.1111 13.331H9.92109C9.39709 13.331 8.95309 13.713 8.87109 14.231L7.75109 21.337ZM21.8971 6.917C21.7175 6.71269 21.5136 6.53102 21.2901 6.376C21.2771 6.452 21.2641 6.551 21.2491 6.63C20.3191 11.408 17.2441 13.831 12.1111 13.831H9.92109C9.78645 13.8312 9.65632 13.8796 9.55432 13.9675C9.45231 14.0553 9.38517 14.1769 9.36509 14.31L8.17809 21.837H7.67209L7.43209 23.353C7.41951 23.433 7.42442 23.5147 7.44649 23.5926C7.46856 23.6705 7.50726 23.7427 7.55992 23.8042C7.61258 23.8657 7.67795 23.9151 7.75152 23.9489C7.82509 23.9827 7.90512 24.0001 7.98609 24H11.8681C12.3281 24 12.7181 23.666 12.7901 23.212C12.8501 22.952 13.5501 18.36 13.6061 18.122C13.6405 17.9021 13.7525 17.7017 13.9218 17.5572C14.091 17.4126 14.3065 17.3335 14.5291 17.334H15.1091C18.8691 17.334 21.8141 15.806 22.6741 11.388C23.0341 9.541 22.8481 8 21.8971 6.917Z" fill="#FAFAFA"/>
</svg>
